<svg width="18" height="18" viewBox="0 0 18 18" fill="none" xmlns="http://www.w3.org/2000/svg">
<path d="M17.1726 7.36775H16.5013V7.33317H9.0013V10.6665H13.7109C13.0238 12.6069 11.1776 13.9998 9.0013 13.9998C6.24005 13.9998 4.0013 11.7611 4.0013 8.99984C4.0013 6.23859 6.24005 3.99984 9.0013 3.99984C10.2759 3.99984 11.4355 4.48067 12.3184 5.26609L14.6755 2.909C13.1871 1.52192 11.1963 0.666504 9.0013 0.666504C4.39922 0.666504 0.667969 4.39775 0.667969 8.99984C0.667969 13.6019 4.39922 17.3332 9.0013 17.3332C13.6034 17.3332 17.3346 13.6019 17.3346 8.99984C17.3346 8.44109 17.2771 7.89567 17.1726 7.36775Z" fill="#FFC107"/>
<path d="M1.62891 5.12109L4.36682 7.129C5.10766 5.29484 6.90182 3.99984 9.00141 3.99984C10.276 3.99984 11.4356 4.48067 12.3185 5.26609L14.6756 2.909C13.1872 1.52192 11.1964 0.666504 9.00141 0.666504C5.80057 0.666504 3.02474 2.47359 1.62891 5.12109Z" fill="#FF3D00"/>
<path d="M9.00078 17.3336C11.1533 17.3336 13.1091 16.5099 14.5879 15.1703L12.0087 12.9878C11.172 13.6215 10.132 14.0003 9.00078 14.0003C6.83328 14.0003 4.99286 12.6182 4.29953 10.6895L1.58203 12.7832C2.9612 15.482 5.76203 17.3336 9.00078 17.3336Z" fill="#4CAF50"/>
<path d="M17.1712 7.36808H16.5V7.3335H9V10.6668H13.7096C13.3796 11.5989 12.78 12.4027 12.0067 12.9881L12.0079 12.9872L14.5871 15.1697C14.4046 15.3356 17.3333 13.1668 17.3333 9.00016C17.3333 8.44141 17.2758 7.896 17.1712 7.36808Z" fill="#1976D2"/>
</svg>
